<?xml version="1.0" encoding="UTF-8"?>
<svg width="187px" height="27px" viewBox="0 0 187 27" version="1.1" xmlns="http://www.w3.org/2000/svg" xmlns:xlink="http://www.w3.org/1999/xlink">
    <!-- Generator: Sketch 63 (92445) - https://sketch.com -->
    <title>编组 13</title>
    <desc>Created with Sketch.</desc>
    <g id="页面-1" stroke="none" stroke-width="1" fill="none" fill-rule="evenodd">
        <g id="首页" transform="translate(-17.000000, -21.000000)">
            <g id="编组-14" transform="translate(17.000000, 20.000000)">
                <g id="编组-13" transform="translate(2.000000, 0.000000)">
                    <text id="黑马智慧物业管理系统" font-family="PingFangSC-Medium, PingFang SC" font-size="15" font-weight="400" fill="#FFFFFF">
                        <tspan x="33" y="16">黑马智慧物业管理系统</tspan>
                    </text>
                    <text id="HEIMA-SMART-PROPERTY" font-family="PingFangSC-Regular, PingFang SC" font-size="6" font-weight="normal" letter-spacing="-0.057196" fill="#E28330">
                        <tspan x="33" y="26">HEIMA SMART PROPERTY  MANAGEMENT SYSTEM</tspan>
                    </text>
                    <g id="编组-12" transform="translate(0.000000, 2.000000)" fill="#E28330">
                        <g id="编组-10" transform="translate(9.000000, 0.000000)">
                            <polygon id="路径-2备份" fill-rule="nonzero" transform="translate(9.000000, 9.000000) scale(-1, 1) translate(-9.000000, -9.000000) " points="0 5.01505823 8.88906006 0 18 5.00754794 18 10.1205363 15.9 10.1205363 15.89985 6.14370375 8.90265 2.29786853 2.09985 6.13579051 2.1 18 0 18"></polygon>
                            <rect id="矩形备份-20" x="-2.64304707e-14" y="11.25" width="2.09032258" height="2.8125"></rect>
                            <rect id="矩形备份-21" x="-2.64304707e-14" y="15.1875" width="2.09032258" height="2.8125"></rect>
                        </g>
                        <g id="编组-10备份" transform="translate(9.000000, 9.000000) scale(-1, 1) translate(-9.000000, -9.000000) ">
                            <polygon id="路径-2备份" fill-rule="nonzero" transform="translate(9.000000, 9.000000) scale(-1, 1) translate(-9.000000, -9.000000) " points="0 5.01505823 8.88906006 0 18 5.00754794 18 10.1205363 15.9 10.1205363 15.89985 6.14370375 8.90265 2.29786853 2.09985 6.13579051 2.1 18 0 18"></polygon>
                            <rect id="矩形备份-20" x="-2.64304707e-14" y="11.25" width="2.09032258" height="2.8125"></rect>
                            <rect id="矩形备份-22" x="-2.64304707e-14" y="15.1875" width="2.09032258" height="2.8125"></rect>
                        </g>
                    </g>
                </g>
            </g>
        </g>
    </g>
</svg>